<svg xmlns="http://www.w3.org/2000/svg" version="1.1" xmlns:xlink="http://www.w3.org/1999/xlink" xmlns:svgjs="http://svgjs.dev/svgjs" width="1000" height="1000" viewBox="0 0 1000 1000"><rect width="1000" height="1000" fill="#ffffff"></rect><g transform="matrix(0.7,0,0,0.7,149.57575757575756,282.1265587044535)"><svg viewBox="0 0 396 247" data-background-color="#5e1914" preserveAspectRatio="xMidYMid meet" height="623" width="1000" xmlns="http://www.w3.org/2000/svg" xmlns:xlink="http://www.w3.org/1999/xlink"><g id="tight-bounds" transform="matrix(1,0,0,1,0.2400000000000091,-0.09999999999999432)"><svg viewBox="0 0 395.52 247.2" height="247.2" width="395.52"><g><svg></svg></g><g><svg viewBox="0 0 395.52 247.2" height="247.2" width="395.52"><g transform="matrix(1,0,0,1,77.11247811977142,47.215199999999996)"><svg viewBox="0 0 241.29504376045713 152.7696" height="152.7696" width="241.29504376045713"><g><svg viewBox="0 0 241.29504376045713 152.7696" height="152.7696" width="241.29504376045713"><g transform="matrix(1,0,0,1,134.7928083318857,0)"><svg viewBox="0 0 106.50223542857142 152.7696" height="152.7696" width="106.50223542857142"><g id="textblocktransform"><svg viewBox="0 0 106.50223542857142 152.7696" height="152.7696" width="106.50223542857142" id="textblock"><g><svg viewBox="0 0 106.50223542857142 152.7696" height="152.7696" width="106.50223542857142"><g transform="matrix(1,0,0,1,0,0)"><svg width="106.50223542857142" viewBox="3.6500000953674316 -35 24.399999618530273 35" height="152.7696" data-palette-color="#ed1703"><g class="wordmark-text-0" data-fill-palette-color="primary" id="text-0"><path d="M27.15-12.1L27.15 0 20.55 0 20.55-10.5Q20.55-11.7 19.93-12.45 19.3-13.2 17.85-13.2L17.85-13.2 10.25-13.2 10.25 0 3.65 0 3.65-35 17.05-35Q19.75-35 21.8-34.25 23.85-33.5 25.23-32.18 26.6-30.85 27.33-29.1 28.05-27.35 28.05-25.35L28.05-25.35 28.05-24.15Q28.05-22 26.9-20.13 25.75-18.25 23.35-17.25L23.35-17.25 23.35-16.35Q25.1-16.15 26.13-15 27.15-13.85 27.15-12.1L27.15-12.1ZM10.25-28.7L10.25-19.5 16.55-19.5Q18.95-19.5 20.2-20.63 21.45-21.75 21.45-23.8L21.45-23.8 21.45-24.4Q21.45-26.15 20.2-27.43 18.95-28.7 16.55-28.7L16.55-28.7 10.25-28.7Z" fill="#000000" data-fill-palette-color="primary"></path></g></svg></g></svg></g></svg></g></svg></g><g transform="matrix(1,0,0,1,0,41.24439720414733)"><svg viewBox="0 0 98.72757224228572 70.28080559170533" height="70.28080559170533" width="98.72757224228572"><g><svg xmlns="http://www.w3.org/2000/svg" xmlns:xlink="http://www.w3.org/1999/xlink" version="1.1" x="0" y="0" viewBox="5.302229881286621 17.458656311035156 84.39983367919922 60.08137512207031" enable-background="new 0 0 95 95" xml:space="preserve" height="70.28080559170533" width="98.72757224228572" class="icon-icon-0" data-fill-palette-color="accent" id="icon-0"><path fill-rule="evenodd" clip-rule="evenodd" d="M88.76 34.986c-0.233-0.3-0.711-0.541-1.095-0.568-1.073-0.079-2.158-0.081-3.235-0.026-2.367 0.119-4.687-0.015-6.974-0.405-3.893-1.595-8.043-2.992-12.613-4.113-11.344-2.784-22.657-2.677-34.029 0.632-0.184 0.054-0.362 0.111-0.544 0.165-3.643 0.992-7.236 2.159-10.816 3.383-2.666 0.912-5.369 1.73-8.135 2.276-1.311 0.258-5.788 0.289-5.706 2.356 0.026 0.662-0.004 1.336 0.105 1.986 0.704 4.151 7.132 2.303 9.799 2.962 1.235 0.306 2.428 1.014 3.61 1.488 2.835 1.138 5.74 2.106 8.689 2.903 9.286 2.508 19.115 3.161 29.46 1.474-0.135 0.186-0.233 0.328-0.351 0.45-1.371 1.42-2.688 2.901-4.136 4.239-4.805 4.44-10.12 8.223-15.542 11.86-3.18 2.134-6.487 4.002-10.186 5.086-3.531 1.034-7.081 1.356-10.627 0.096-2.583-0.917-4.665-2.467-5.882-4.993-0.871-1.805-0.786-3.608 0.25-5.326 0.135-0.223 0.3-0.418 0.478-0.596-0.091 0.415-0.142 0.845-0.142 1.288 0 3.311 2.685 5.995 5.995 5.995 3.311 0 5.995-2.684 5.995-5.995 0-0.481-0.063-0.947-0.17-1.395-0.333-2.515-2.069-4.806-4.552-5.518-3.241-0.929-6.418-0.515-9.255 1.333-3.398 2.212-4.262 5.624-3.682 9.369 0.674 4.356 3.182 7.497 7.161 9.419 3.082 1.488 6.37 1.439 9.662 1.17 5.176-0.425 10.001-2.05 14.594-4.422 6.225-3.216 11.649-7.526 16.617-12.404 4.327-4.248 8.831-8.246 14.047-11.383 0.576-0.347 1.152-0.695 1.809-1.09-1.102 2.957-2.207 5.77-3.201 8.622-1.839 5.269-3.523 10.586-4.132 16.169-0.172 1.574-0.281 3.172 0.217 4.716 1.403 4.351 5.835-3.096 6.685-4.279 3.433-4.777 7.229-9.043 11.17-13.397 1.252-1.383-1.037-1.359-1.878-1.58-2.396-0.627-4.31-2.534-5.259-4.778-0.834-1.971-0.553-5.11 1.025-7.514 2.621-1.13 4.989-2.761 7.558-3.998 2.472-1.191 4.961-1.55 7.621-2.093 0.199-0.041 0.481-0.293 0.505-0.476C89.816 36.923 89.455 35.878 88.76 34.986zM65.586 44.567c-1.036 0.329-6.316 1.915-7.857 2.229C47.016 48.98 37.096 48.12 28.065 44.91c-2.63-0.935-11.139-4.396-11.108-5.114 0.44-0.25 12.373-6.068 18.006-7.604 2.353-0.641 4.71-1.113 7.072-1.423-2.217 1.665-3.658 4.307-3.658 7.293 0 5.039 4.085 9.123 9.123 9.123 5.04 0 9.124-4.083 9.124-9.123 0-3.15-1.596-5.926-4.022-7.566 2.293 0.183 4.591 0.517 6.896 1.015 1.767 0.382 7.048 1.978 7.11 1.949 3.006 1.002 7.507 3.248 10.164 4.512C77.089 38.819 69.22 43.23 65.586 44.567z" fill="#000000" data-fill-palette-color="accent"></path><path fill-rule="evenodd" clip-rule="evenodd" d="M8.367 32.461c1.034 0.118 2.115 0.108 3.14-0.062 3.639-0.602 7.087-1.875 10.527-3.159 6.303-2.351 12.652-4.54 19.321-5.646 5.141-0.854 10.284-0.854 15.436-0.14 5.266 0.729 10.385 2.086 15.454 3.646 3.075 0.947 6.16 1.853 9.43 1.78 0.711-0.036 1.434-0.004 2.132-0.124 1.439-0.249 2.898-0.474 4.287-0.908 1.084-0.339 1.578-1.529 1.336-2.578-0.263-1.137-0.997-1.717-2.242-1.713-0.711 0.002-1.42 0.072-2.131 0.105-1.627 0.075-3.268 0.303-4.878 0.176-1.657-0.13-3.302-0.541-4.924-0.945-5.762-1.437-11.492-3.008-17.273-4.36-3.718-0.87-7.53-1.205-11.359-1.029-5.883 0.271-11.601 1.506-17.215 3.204-4.147 1.255-8.241 2.686-12.368 4.009-2.625 0.841-5.35 1.049-8.084 1.171-1.318 0.059-1.961 0.572-2.168 1.859-0.141 0.876-0.144 1.782-0.138 2.673C6.655 31.603 7.196 32.329 8.367 32.461z" fill="#000000" data-fill-palette-color="accent"></path></svg></g></svg></g></svg></g></svg></g><path d="M259.414 41.215L259.414 0 12.214 0 12.214 247.2 259.414 247.2 259.414 205.985 245.637 205.985 245.637 233.423 25.991 233.423 25.991 13.777 245.637 13.777 245.637 41.215Z" fill="#000000" stroke="transparent" data-fill-palette-color="primary"></path></svg></g><defs></defs></svg><rect width="395.52" height="247.2" fill="none" stroke="none" visibility="hidden"></rect></g></svg></g></svg>